<!-- Generated by IcoMoon.io -->
<svg version="1.1" xmlns="http://www.w3.org/2000/svg" width="448" height="448" viewBox="0 0 448 448">
<title></title>
<g id="icomoon-ignore">
</g>
<path fill="#000" d="M447.991 37.342v130.66c0 10.208-8.458 18.665-18.666 18.665h-130.66c-7.583 0-14.291-4.666-17.207-11.666-2.916-6.708-1.458-14.875 4.083-20.124l40.248-40.248c-27.415-25.374-63.58-39.956-101.787-39.956-82.246 0-149.326 67.080-149.326 149.326s67.080 149.326 149.326 149.326c46.373 0 89.246-20.999 117.827-58.039 1.458-2.041 4.083-3.208 6.708-3.5 2.625 0 5.25 0.875 7.291 2.625l39.956 40.248c3.5 3.208 3.5 8.75 0.583 12.541-42.581 51.331-105.578 80.788-172.367 80.788-123.369 0-223.989-100.62-223.989-223.989s100.62-223.989 223.989-223.989c57.455 0 113.161 23.041 154.284 61.831l37.915-37.623c5.25-5.541 13.416-7 20.416-4.083 6.708 2.916 11.375 9.625 11.375 17.207z"></path>
</svg>
